<svg id="Layer_1" data-name="Layer 1" xmlns="http://www.w3.org/2000/svg" viewBox="0 0 71.94 2010.18"><defs><style>.cls-1{fill:none;stroke:#000;stroke-width:0.25px;}.cls-1,.cls-2{stroke-miterlimit:10;}.cls-2,.cls-4{font-size:34px;font-family:BradleyHandITC, Bradley Hand ITC;}.cls-2{stroke:#003ec9;}.cls-3{stroke-miterlimit:4;}</style></defs><path class="cls-1" d="M77.9,15.46V226.1l-.05-3.24V324.07L42.5,360v.66l35.35,35.91.45.91v252.1l35.35,35.91v.65L78.3,722l.22,1V974.18l-.13.92L43,1011v.65l35.35,35.91.45.83V1303l35.35,35.91v.65l-35.35,35.91v272.87l-35.36,35.91.13-.37v1.24L79,1721l-.13-.29v304.92" transform="translate(-42.37 -15.46)"/><text class="cls-2" transform="translate(26.87 350.92)">1<tspan class="cls-3" x="16.7" y="0">.</tspan></text><text class="cls-4" transform="translate(26.05 677.5)">2.</text><text class="cls-4" transform="translate(26.77 1005.09)">3.</text><text class="cls-4" transform="translate(27.1 1330.87)">4.</text></svg>