<svg id="Layer_1" data-name="Layer 1" xmlns="http://www.w3.org/2000/svg" xmlns:xlink="http://www.w3.org/1999/xlink" viewBox="0 0 595.28 841.89"><defs><style>.cls-1{fill:url(#linear-gradient);}.cls-2,.cls-4{opacity:0.8;}.cls-2{fill:url(#linear-gradient-2);}.cls-3{fill:url(#linear-gradient-3);}.cls-4{fill:url(#linear-gradient-4);}</style><linearGradient id="linear-gradient" x1="304.15" y1="484.87" x2="153.43" y2="302.34" gradientUnits="userSpaceOnUse"><stop offset="0" stop-color="#00aeef"/><stop offset="0.55" stop-color="#51498b"/></linearGradient><linearGradient id="linear-gradient-2" x1="305.55" y1="436.16" x2="192.86" y2="585.37" gradientUnits="userSpaceOnUse"><stop offset="0" stop-color="#7f3f98"/><stop offset="0.5" stop-color="#00aeef" stop-opacity="0.8"/></linearGradient><linearGradient id="linear-gradient-3" x1="324.17" y1="491.06" x2="470.23" y2="304.31" gradientUnits="userSpaceOnUse"><stop offset="0" stop-color="#00aeef"/><stop offset="0.48" stop-color="#51498b"/></linearGradient><linearGradient id="linear-gradient-4" x1="331.08" y1="449.15" x2="434.88" y2="580.6" gradientUnits="userSpaceOnUse"><stop offset="0" stop-color="#7f3f98"/><stop offset="0.44" stop-color="#00aeef" stop-opacity="0.8"/></linearGradient></defs><path class="cls-1" d="M147.68,285.7c-.08,31.64,1.74,70.76,1.65,102.67,0,1.11,1.25,13.71,1.41,14.81,5.68,37.79,54,54.39,73.6,56.72,23.73,2.82,31.3,3.27,49.31,13.49,21,11.91,32.07,28.65,32.29,30.6.41,3.66.45-23.73-.13-112.08-.8-30.54-26-56.06-55.69-65.42-31.6-10-75-12.51-102.39-40.73"/><path class="cls-2" d="M187.74,593.24C187.68,569.44,189,540,189,516c0-.83.94-10.31,1.06-11.14,4.24-28.43,40.35-40.91,55-42.67,17.74-2.12,23.4-2.46,36.85-10.14,15.7-9,24-21.56,24.14-23,.31-2.76.33,17.85-.1,84.31-.59,23-19.46,42.17-41.62,49.21-23.62,7.51-56,9.41-76.52,30.64"/><path class="cls-3" d="M481.37,285.7c.09,31.64-1.73,70.76-1.64,102.67,0,1.11-1.25,13.71-1.42,14.81-5.67,37.79-54,54.39-73.59,56.72-23.74,2.82-31.31,3.27-49.31,13.49-21,11.91-32.07,28.65-32.29,30.6-.42,3.66-.45-23.73.13-112.08.79-30.54,26-56.06,55.68-65.42,31.61-10,75-12.51,102.39-40.73"/><path class="cls-4" d="M441.32,593.24c.06-23.8-1.3-53.23-1.24-77.23,0-.83-.93-10.31-1.05-11.14-4.24-28.43-40.36-40.91-55-42.67-17.73-2.12-23.39-2.46-36.85-10.14-15.7-9-24-21.56-24.13-23-.31-2.76-.34,17.85.1,84.31.59,23,19.46,42.17,41.61,49.21,23.63,7.51,56.05,9.41,76.53,30.64"/></svg>