<?xml version="1.0" standalone="no"?>
<svg xmlns:xlink="http://www.w3.org/1999/xlink" id="wave" style="transform:rotate(180deg); transition: 0.3s" viewBox="0 0 1440 100" version="1.1" xmlns="http://www.w3.org/2000/svg"><defs><linearGradient id="sw-gradient-0" x1="0" x2="0" y1="1" y2="0"><stop stop-color="rgba(243, 106, 62, 1)" offset="0%"/><stop stop-color="rgba(255, 179, 11, 1)" offset="100%"/></linearGradient></defs><path style="transform:translate(0, 0px); opacity:1" fill="url(#sw-gradient-0)" d="M0,50L30,48.3C60,47,120,43,180,48.3C240,53,300,67,360,63.3C420,60,480,40,540,31.7C600,23,660,27,720,31.7C780,37,840,43,900,38.3C960,33,1020,17,1080,20C1140,23,1200,47,1260,56.7C1320,67,1380,63,1440,65C1500,67,1560,73,1620,73.3C1680,73,1740,67,1800,60C1860,53,1920,47,1980,43.3C2040,40,2100,40,2160,41.7C2220,43,2280,47,2340,55C2400,63,2460,77,2520,71.7C2580,67,2640,43,2700,38.3C2760,33,2820,47,2880,51.7C2940,57,3000,53,3060,58.3C3120,63,3180,77,3240,70C3300,63,3360,37,3420,30C3480,23,3540,37,3600,38.3C3660,40,3720,30,3780,33.3C3840,37,3900,53,3960,61.7C4020,70,4080,70,4140,65C4200,60,4260,50,4290,45L4320,40L4320,100L4290,100C4260,100,4200,100,4140,100C4080,100,4020,100,3960,100C3900,100,3840,100,3780,100C3720,100,3660,100,3600,100C3540,100,3480,100,3420,100C3360,100,3300,100,3240,100C3180,100,3120,100,3060,100C3000,100,2940,100,2880,100C2820,100,2760,100,2700,100C2640,100,2580,100,2520,100C2460,100,2400,100,2340,100C2280,100,2220,100,2160,100C2100,100,2040,100,1980,100C1920,100,1860,100,1800,100C1740,100,1680,100,1620,100C1560,100,1500,100,1440,100C1380,100,1320,100,1260,100C1200,100,1140,100,1080,100C1020,100,960,100,900,100C840,100,780,100,720,100C660,100,600,100,540,100C480,100,420,100,360,100C300,100,240,100,180,100C120,100,60,100,30,100L0,100Z"/></svg>