<?xml version="1.0" encoding="utf-8"?>
<!-- Generator: Adobe Illustrator 25.2.0, SVG Export Plug-In . SVG Version: 6.00 Build 0)  -->
<svg version="1.1" id="Layer_1" xmlns="http://www.w3.org/2000/svg" xmlns:xlink="http://www.w3.org/1999/xlink" x="0px" y="0px"
	 viewBox="0 0 145.8 2047" style="enable-background:new 0 0 145.8 2047;" xml:space="preserve">
<style type="text/css">
	.st0{fill:none;stroke:#ECCAE1;}
</style>
<path class="st0" d="M60.4,726.1l-0.5-0.5 M72.5,22.3v99V103v130l0-3.2l0,101.6v-0.4l-35.4,35.9v0.7l35.4,35.9l0.4,0.9l0,111.9V531
	l0,125.8v-0.4l35.4,35.9v0.7l-35.4,35.9l0.2,1l0,103.4V848l0,133l-0.1,0.9l-35.4,35.9v0.7l35.4,35.9l0.4,0.8l0,56v14.7l0,183.2v0.7
	l35.4,35.9v0.7l-35.4,35.9v-1l0,129.2v14.5l0,130.5v-0.4L38,1691.1l0.1-0.4v1.2l35.4,35.9l-0.1-0.3l0,304.9"/>
</svg>
