<?xml version="1.0" encoding="utf-8"?>
<!-- Generator: Adobe Illustrator 25.2.0, SVG Export Plug-In . SVG Version: 6.00 Build 0)  -->
<svg version="1.1" id="Layer_1" xmlns="http://www.w3.org/2000/svg" xmlns:xlink="http://www.w3.org/1999/xlink" x="0px" y="0px"
	 viewBox="0 0 52 2047" style="enable-background:new 0 0 52 2047;" xml:space="preserve">
<style type="text/css">
	.st0{fill:none;stroke:#ECCAE1;}
</style>
<g>
	
		<image style="overflow:visible;opacity:0.75;" width="84" height="1727" xlink:href="812A3B77.png"  transform="matrix(1 0 0 1 -16 140)">
	</image>
	<g>
		<path class="st0" d="M26,155.9C26,207,27,258,25,309c0,2,1,6-1,5c-10,0-18,8-22,16c-3,7-1,14,2,21c4,8,11,13,20,14c7,1,13-3,19-7
			c8-7,14-22,3-30c-6-4-15-4-18,3c-5,108,0,215-3,323c-10,3-22,7-24,19c-2,11,2,21,11,27c4,3,9,4,14,4s10-2,14-4c9-6,15-18,9-28
			c-5-9-17-8-22,0c-2,107,1,214-2,321c0,2-3,2-6,2c-14,4-24,20-17,34c4,8,11,14,20,15c12,1,25-6,28-18c2-4,2-10,0-14c-3-5-9-7-15-6
			c-5,2-9,7-9,12c-1,106,2,213-1,319c0,1-4,1-6,2s-5,2-7,3c-1,2-3,3-5,5c-6,8-9,19-4,28c4,7,11,12,19,13c6,1,11,0,16-2
			c10-5,16-16,13-27c-2-4-3-8-8-9c-5,0-10-1-13,3c-1,2-2,4-2,6c-6,107-1,213-2,319c-7,0-14,3-19,8c-11,12-8,32,7,39c7,3,16,3,23,0
			c7-4,13-10,14-18c1-7-4-15-11-16c-4,0-7,1-10,3c-2,2-3,4-3,6c-2,51-1,101-1.3,151.8"/>
	</g>
</g>
</svg>
